<svg width="177" height="249" viewBox="0 0 177 249" fill="none" xmlns="http://www.w3.org/2000/svg">
<g filter="url(#filter0_f_17_27)">
<path d="M33.1875 153.125H143.812M33.1875 153.125C25.0413 153.125 18.4375 159.729 18.4375 167.875V197.375H27.1953M33.1875 153.125L46.8666 111.632C48.86 105.585 54.5082 101.5 60.8749 101.5H116.125C122.492 101.5 128.14 105.585 130.133 111.632L143.812 153.125M143.812 153.125C151.959 153.125 158.562 159.729 158.562 167.875V197.375H149.805M27.1953 197.375V209.129C27.1953 212.82 30.1876 215.812 33.8789 215.812C37.5702 215.812 40.5625 212.82 40.5625 209.129V197.375M27.1953 197.375H40.5625M149.805 197.375V209.129C149.805 212.82 146.813 215.812 143.121 215.812C139.43 215.812 136.438 212.82 136.438 209.129V197.375M149.805 197.375H136.438M136.438 197.375H40.5625M51.625 175.25C51.625 177.286 49.974 178.938 47.9375 178.938C45.901 178.938 44.25 177.286 44.25 175.25C44.25 173.214 45.901 171.562 47.9375 171.562C49.974 171.562 51.625 173.214 51.625 175.25ZM132.75 175.25C132.75 177.286 131.099 178.938 129.062 178.938C127.026 178.938 125.375 177.286 125.375 175.25C125.375 173.214 127.026 171.562 129.062 171.562C131.099 171.562 132.75 173.214 132.75 175.25Z" stroke="#5300FC" stroke-width="9" stroke-linecap="round"/>
</g>
<g filter="url(#filter1_d_17_27)">
<path d="M33.1875 153.125H143.812M33.1875 153.125C25.0413 153.125 18.4375 159.729 18.4375 167.875V197.375H27.1953M33.1875 153.125L46.8666 111.632C48.86 105.585 54.5082 101.5 60.8749 101.5H116.125C122.492 101.5 128.14 105.585 130.133 111.632L143.812 153.125M143.812 153.125C151.959 153.125 158.562 159.729 158.562 167.875V197.375H149.805M27.1953 197.375V209.129C27.1953 212.82 30.1876 215.812 33.8789 215.812C37.5702 215.812 40.5625 212.82 40.5625 209.129V197.375M27.1953 197.375H40.5625M149.805 197.375V209.129C149.805 212.82 146.813 215.812 143.121 215.812C139.43 215.812 136.438 212.82 136.438 209.129V197.375M149.805 197.375H136.438M136.438 197.375H40.5625M51.625 175.25C51.625 177.286 49.974 178.938 47.9375 178.938C45.901 178.938 44.25 177.286 44.25 175.25C44.25 173.214 45.901 171.562 47.9375 171.562C49.974 171.562 51.625 173.214 51.625 175.25ZM132.75 175.25C132.75 177.286 131.099 178.938 129.062 178.938C127.026 178.938 125.375 177.286 125.375 175.25C125.375 173.214 127.026 171.562 129.062 171.562C131.099 171.562 132.75 173.214 132.75 175.25Z" stroke="white" stroke-linecap="round" shape-rendering="crispEdges"/>
</g>
<g filter="url(#filter2_f_17_27)">
<path d="M88.5 22.75V68.25M77.125 54.9792C77.125 58.1202 79.6714 60.6667 82.8125 60.6667H92.2917C96.48 60.6667 99.875 57.2716 99.875 53.0833C99.875 48.895 96.48 45.5 92.2917 45.5H84.7084C80.5202 45.5 77.125 42.1049 77.125 37.9167C77.125 33.7285 80.5202 30.3333 84.7084 30.3333H92.2917C96.48 30.3333 99.875 33.7285 99.875 37.9167M124.521 45.5C124.521 65.3937 108.394 81.5208 88.5 81.5208C68.6062 81.5208 52.4792 65.3937 52.4792 45.5C52.4792 25.6062 68.6062 9.47916 88.5 9.47916C108.394 9.47916 124.521 25.6062 124.521 45.5Z" stroke="#4800DB" stroke-width="5" stroke-linecap="round"/>
</g>
<path d="M88.5 22.75V68.25M77.125 54.9792C77.125 58.1202 79.6714 60.6667 82.8125 60.6667H92.2917C96.48 60.6667 99.875 57.2716 99.875 53.0833C99.875 48.895 96.48 45.5 92.2917 45.5H84.7084C80.5202 45.5 77.125 42.1049 77.125 37.9167C77.125 33.7285 80.5202 30.3333 84.7084 30.3333H92.2917C96.48 30.3333 99.875 33.7285 99.875 37.9167M124.521 45.5C124.521 65.3937 108.394 81.5208 88.5 81.5208C68.6062 81.5208 52.4792 65.3937 52.4792 45.5C52.4792 25.6062 68.6062 9.47916 88.5 9.47916C108.394 9.47916 124.521 25.6062 124.521 45.5Z" stroke="white" stroke-linecap="round"/>
<defs>
<filter id="filter0_f_17_27" x="9.9375" y="93" width="157.125" height="131.312" filterUnits="userSpaceOnUse" color-interpolation-filters="sRGB">
<feFlood flood-opacity="0" result="BackgroundImageFix"/>
<feBlend mode="normal" in="SourceGraphic" in2="BackgroundImageFix" result="shape"/>
<feGaussianBlur stdDeviation="2" result="effect1_foregroundBlur_17_27"/>
</filter>
<filter id="filter1_d_17_27" x="13.9375" y="101" width="149.125" height="123.312" filterUnits="userSpaceOnUse" color-interpolation-filters="sRGB">
<feFlood flood-opacity="0" result="BackgroundImageFix"/>
<feColorMatrix in="SourceAlpha" type="matrix" values="0 0 0 0 0 0 0 0 0 0 0 0 0 0 0 0 0 0 127 0" result="hardAlpha"/>
<feOffset dy="4"/>
<feGaussianBlur stdDeviation="2"/>
<feComposite in2="hardAlpha" operator="out"/>
<feColorMatrix type="matrix" values="0 0 0 0 0 0 0 0 0 0 0 0 0 0 0 0 0 0 0.25 0"/>
<feBlend mode="normal" in2="BackgroundImageFix" result="effect1_dropShadow_17_27"/>
<feBlend mode="normal" in="SourceGraphic" in2="effect1_dropShadow_17_27" result="shape"/>
</filter>
<filter id="filter2_f_17_27" x="45.9792" y="2.97916" width="85.0417" height="85.0417" filterUnits="userSpaceOnUse" color-interpolation-filters="sRGB">
<feFlood flood-opacity="0" result="BackgroundImageFix"/>
<feBlend mode="normal" in="SourceGraphic" in2="BackgroundImageFix" result="shape"/>
<feGaussianBlur stdDeviation="2" result="effect1_foregroundBlur_17_27"/>
</filter>
</defs>
</svg>
