<svg id="Warstwa_1" data-name="Warstwa 1" xmlns="http://www.w3.org/2000/svg" viewBox="0 0 512 366"><defs><style>.cls-1,.cls-2,.cls-3{fill:none;stroke-linecap:round;}.cls-1{stroke:#5300fc;stroke-width:9px;}.cls-2{stroke:#fff;}.cls-3{stroke:#4800db;stroke-width:5px;}</style></defs><path d="M120.74,364.9c16.82,0,33.63-55.25,50.45-73.27,18-19.22,34.83,0,51.65,12s33.63,18,51.65,15.62c16.82-3.61,33.63-15.62,50.45-3.61,18,13.22,34.84,49.25,51.65,49.25s33.63-36,51.65-36c6.78.91,12-5.39,17.27-13.6A214.06,214.06,0,0,0,470.28,215c0-118.75-96.26-215-215-215s-215,96.26-215,215a214.71,214.71,0,0,0,11.15,68.51C59.73,304.37,90.79,364.9,120.74,364.9Z"/><path class="cls-1" d="M194.64,198H316.85m-122.21,0a16.29,16.29,0,0,0-16.29,16.29v32.59H188M194.64,198l15.11-45.84A16.3,16.3,0,0,1,225.23,141h61a16.32,16.32,0,0,1,15.48,11.2L316.85,198m0,0a16.29,16.29,0,0,1,16.29,16.29v32.59h-9.67m-135.45,0v13a7.39,7.39,0,1,0,14.77,0v-13m-14.77,0h14.77m120.68,0v13a7.39,7.39,0,1,1-14.77,0v-13m14.77,0H308.7m0,0H202.79M215,222.43a4.08,4.08,0,1,1-4.08-4.08A4.08,4.08,0,0,1,215,222.43Zm89.62,0a4.08,4.08,0,1,1-4.08-4.08A4.08,4.08,0,0,1,304.63,222.43Z"/><path class="cls-2" d="M194.64,198H316.85m-122.21,0a16.29,16.29,0,0,0-16.29,16.29v32.59H188M194.64,198l15.11-45.84A16.3,16.3,0,0,1,225.23,141h61a16.32,16.32,0,0,1,15.48,11.2L316.85,198m0,0a16.29,16.29,0,0,1,16.29,16.29v32.59h-9.67m-135.45,0v13a7.39,7.39,0,1,0,14.77,0v-13m-14.77,0h14.77m120.68,0v13a7.39,7.39,0,1,1-14.77,0v-13m14.77,0H308.7m0,0H202.79M215,222.43a4.08,4.08,0,1,1-4.08-4.08A4.08,4.08,0,0,1,215,222.43Zm89.62,0a4.08,4.08,0,1,1-4.08-4.08A4.08,4.08,0,0,1,304.63,222.43Z"/><path class="cls-3" d="M255.74,54v50.26M243.18,89.56a6.29,6.29,0,0,0,6.28,6.29h10.47a8.38,8.38,0,0,0,0-16.76h-8.38a8.38,8.38,0,0,1,0-16.75h8.38a8.38,8.38,0,0,1,8.38,8.37m27.23,8.38a39.8,39.8,0,1,1-39.8-39.79A39.79,39.79,0,0,1,295.54,79.09Z"/><path class="cls-2" d="M255.74,54v50.26M243.18,89.56a6.29,6.29,0,0,0,6.28,6.29h10.47a8.38,8.38,0,0,0,0-16.76h-8.38a8.38,8.38,0,0,1,0-16.75h8.38a8.38,8.38,0,0,1,8.38,8.37m27.23,8.38a39.8,39.8,0,1,1-39.8-39.79A39.79,39.79,0,0,1,295.54,79.09Z"/></svg>